<svg xmlns="http://www.w3.org/2000/svg" viewBox="0 0 1440 900" role="img" aria-labelledby="title desc">
  <title id="title">Aurora Workspace preview</title>
  <desc id="desc">Faux screenshot of the Aurora Workspace personal information manager dashboard showing notes, contacts, and tasks widgets.</desc>
  <defs>
    <linearGradient id="bg" x1="0" y1="0" x2="1" y2="1">
      <stop offset="0%" stop-color="#0f172a" />
      <stop offset="50%" stop-color="#1f2937" />
      <stop offset="100%" stop-color="#111827" />
    </linearGradient>
    <linearGradient id="card" x1="0" y1="0" x2="1" y2="1">
      <stop offset="0%" stop-color="#f9fafb" />
      <stop offset="100%" stop-color="#e5e7eb" />
    </linearGradient>
    <linearGradient id="accent" x1="0" y1="0" x2="0" y2="1">
      <stop offset="0%" stop-color="#34d399" />
      <stop offset="100%" stop-color="#22d3ee" />
    </linearGradient>
    <filter id="shadow" x="-20%" y="-20%" width="140%" height="140%">
      <feDropShadow dx="0" dy="20" stdDeviation="40" flood-opacity="0.35" />
    </filter>
  </defs>
  <rect width="1440" height="900" fill="url(#bg)" />
  <g transform="translate(120 100)" filter="url(#shadow)">
    <rect width="1200" height="700" rx="28" fill="rgba(17,24,39,0.6)" stroke="rgba(148,163,184,0.3)" stroke-width="2" />
    <rect x="48" y="40" width="1104" height="92" rx="18" fill="rgba(15,118,110,0.15)" stroke="rgba(45,212,191,0.6)" />
    <circle cx="92" cy="86" r="14" fill="#34d399" opacity="0.8" />
    <rect x="130" y="72" width="260" height="28" rx="14" fill="rgba(226,232,240,0.55)" />
    <rect x="416" y="76" width="220" height="20" rx="10" fill="rgba(226,232,240,0.3)" />
    <rect x="660" y="76" width="320" height="20" rx="10" fill="rgba(226,232,240,0.3)" />
    <rect x="1008" y="72" width="96" height="28" rx="14" fill="url(#accent)" opacity="0.8" />
    <g transform="translate(48 160)">
      <rect width="704" height="220" rx="24" fill="url(#card)" />
      <rect x="32" y="32" width="200" height="20" rx="10" fill="#1f2937" opacity="0.6" />
      <rect x="32" y="70" width="320" height="18" rx="9" fill="#1f2937" opacity="0.3" />
      <rect x="32" y="104" width="560" height="18" rx="9" fill="#1f2937" opacity="0.2" />
      <rect x="32" y="138" width="480" height="18" rx="9" fill="#1f2937" opacity="0.2" />
      <rect x="32" y="172" width="420" height="18" rx="9" fill="#1f2937" opacity="0.2" />
      <rect x="560" y="40" width="96" height="40" rx="12" fill="url(#accent)" />
    </g>
    <g transform="translate(48 408)">
      <rect width="704" height="220" rx="24" fill="url(#card)" />
      <rect x="32" y="32" width="220" height="20" rx="10" fill="#1f2937" opacity="0.6" />
      <rect x="32" y="72" width="560" height="70" rx="18" fill="rgba(59,130,246,0.12)" />
      <rect x="48" y="88" width="220" height="20" rx="10" fill="#1f2937" opacity="0.35" />
      <rect x="48" y="120" width="380" height="14" rx="7" fill="#1f2937" opacity="0.2" />
      <rect x="32" y="164" width="520" height="16" rx="8" fill="#1f2937" opacity="0.2" />
      <rect x="32" y="192" width="360" height="16" rx="8" fill="#1f2937" opacity="0.2" />
      <rect x="560" y="48" width="96" height="36" rx="12" fill="rgba(59,130,246,0.45)" />
    </g>
    <g transform="translate(784 160)">
      <rect width="320" height="468" rx="24" fill="url(#card)" />
      <rect x="36" y="36" width="156" height="20" rx="10" fill="#1f2937" opacity="0.6" />
      <rect x="36" y="76" width="248" height="16" rx="8" fill="#1f2937" opacity="0.25" />
      <rect x="36" y="112" width="248" height="16" rx="8" fill="#1f2937" opacity="0.25" />
      <rect x="36" y="148" width="248" height="16" rx="8" fill="#1f2937" opacity="0.25" />
      <rect x="36" y="196" width="248" height="180" rx="16" fill="rgba(52,211,153,0.18)" />
      <rect x="56" y="216" width="200" height="16" rx="8" fill="#1f2937" opacity="0.25" />
      <rect x="56" y="248" width="180" height="16" rx="8" fill="#1f2937" opacity="0.2" />
      <rect x="36" y="408" width="248" height="16" rx="8" fill="#1f2937" opacity="0.18" />
      <rect x="36" y="440" width="180" height="16" rx="8" fill="#1f2937" opacity="0.18" />
    </g>
  </g>
</svg>
